<svg width="56" height="56" viewBox="0 0 56 56" fill="none" xmlns="http://www.w3.org/2000/svg">
<path d="M5.0165 33.1037C2.24596 30.36 2.22425 25.8898 4.968 23.1192L22.896 5.01622C25.6397 2.24568 30.1099 2.22397 32.8805 4.96772L50.9835 22.8957C53.754 25.6394 53.7758 30.1097 51.032 32.8802L33.104 50.9832C30.3603 53.7538 25.8901 53.7755 23.1195 51.0317L5.0165 33.1037Z" fill="#F7CE46"/>
<path d="M30.7025 15.5317L30.0467 32.4018H25.2921L24.6363 15.5317H30.7025ZM27.7514 41.418C26.7677 41.418 25.9588 41.1128 25.3249 40.5023C24.7128 39.8683 24.4067 39.0935 24.4067 38.1778C24.4067 37.2386 24.7128 36.4521 25.3249 35.8181C25.9588 35.1842 26.7677 34.8672 27.7514 34.8672C28.7132 34.8672 29.5002 35.1842 30.1123 35.8181C30.7462 36.4521 31.0632 37.2386 31.0632 38.1778C31.0632 39.0935 30.7462 39.8683 30.1123 40.5023C29.5002 41.1128 28.7132 41.418 27.7514 41.418Z" fill="white"/>
</svg>
