<svg width="21" height="21" viewBox="0 0 21 21" fill="none" xmlns="http://www.w3.org/2000/svg">
<path d="M14 3.5H15.75C16.2141 3.5 16.6592 3.68437 16.9874 4.01256C17.3156 4.34075 17.5 4.78587 17.5 5.25V17.5C17.5 17.9641 17.3156 18.4092 16.9874 18.7374C16.6592 19.0656 16.2141 19.25 15.75 19.25H5.25C4.78587 19.25 4.34075 19.0656 4.01256 18.7374C3.68437 18.4092 3.5 17.9641 3.5 17.5V5.25C3.5 4.78587 3.68437 4.34075 4.01256 4.01256C4.34075 3.68437 4.78587 3.5 5.25 3.5H7" stroke="white" stroke-width="1.5" stroke-linecap="round" stroke-linejoin="round"/>
<path d="M6.2998 7.90002C6.02366 7.90002 5.7998 8.12388 5.7998 8.40002C5.7998 8.67617 6.02366 8.90002 6.2998 8.90002V7.90002ZM14.6998 8.90002C14.9759 8.90002 15.1998 8.67617 15.1998 8.40002C15.1998 8.12388 14.9759 7.90002 14.6998 7.90002V8.90002ZM6.2998 8.90002H14.6998V7.90002H6.2998V8.90002Z" fill="#174A84"/>
<path d="M6.2998 11.05C6.02366 11.05 5.7998 11.2739 5.7998 11.55C5.7998 11.8262 6.02366 12.05 6.2998 12.05V11.05ZM14.6998 12.05C14.9759 12.05 15.1998 11.8262 15.1998 11.55C15.1998 11.2739 14.9759 11.05 14.6998 11.05V12.05ZM6.2998 12.05H14.6998V11.05H6.2998V12.05Z" fill="#174A84"/>
<path d="M6.2998 14.2C6.02366 14.2 5.7998 14.4238 5.7998 14.7C5.7998 14.9761 6.02366 15.2 6.2998 15.2V14.2ZM14.6998 15.2C14.9759 15.2 15.1998 14.9761 15.1998 14.7C15.1998 14.4238 14.9759 14.2 14.6998 14.2V15.2ZM6.2998 15.2H14.6998V14.2H6.2998V15.2Z" fill="#174A84"/>
<path d="M13.125 1.75H7.875C7.39175 1.75 7 2.14175 7 2.625V4.375C7 4.85825 7.39175 5.25 7.875 5.25H13.125C13.6082 5.25 14 4.85825 14 4.375V2.625C14 2.14175 13.6082 1.75 13.125 1.75Z" stroke="white" stroke-width="1.5" stroke-linecap="round" stroke-linejoin="round"/>
</svg>
