<svg width="21" height="21" viewBox="0 0 21 21" fill="none" xmlns="http://www.w3.org/2000/svg">
<path d="M14.0439 11.375C14.5272 11.375 14.9189 10.9832 14.9189 10.5C14.9189 10.0168 14.5272 9.625 14.0439 9.625C13.5607 9.625 13.1689 10.0168 13.1689 10.5C13.1689 10.9832 13.5607 11.375 14.0439 11.375Z" stroke="white" stroke-width="2" stroke-linecap="round" stroke-linejoin="round"/>
<path d="M7.04395 11.201C7.52719 11.201 7.91895 10.8093 7.91895 10.326C7.91895 9.8428 7.52719 9.45105 7.04395 9.45105C6.5607 9.45105 6.16895 9.8428 6.16895 10.326C6.16895 10.8093 6.5607 11.201 7.04395 11.201Z" stroke="white" stroke-width="2" stroke-linecap="round" stroke-linejoin="round"/>
<path d="M14.0439 4.375C14.5272 4.375 14.9189 3.98325 14.9189 3.5C14.9189 3.01675 14.5272 2.625 14.0439 2.625C13.5607 2.625 13.1689 3.01675 13.1689 3.5C13.1689 3.98325 13.5607 4.375 14.0439 4.375Z" stroke="white" stroke-width="2" stroke-linecap="round" stroke-linejoin="round"/>
<path d="M7.04395 4.20105C7.52719 4.20105 7.91895 3.8093 7.91895 3.32605C7.91895 2.8428 7.52719 2.45105 7.04395 2.45105C6.5607 2.45105 6.16895 2.8428 6.16895 3.32605C6.16895 3.8093 6.5607 4.20105 7.04395 4.20105Z" stroke="white" stroke-width="2" stroke-linecap="round" stroke-linejoin="round"/>
<path d="M14.0439 18.375C14.5272 18.375 14.9189 17.9832 14.9189 17.5C14.9189 17.0168 14.5272 16.625 14.0439 16.625C13.5607 16.625 13.1689 17.0168 13.1689 17.5C13.1689 17.9832 13.5607 18.375 14.0439 18.375Z" stroke="white" stroke-width="2" stroke-linecap="round" stroke-linejoin="round"/>
<path d="M7.04395 18.201C7.52719 18.201 7.91895 17.8093 7.91895 17.326C7.91895 16.8428 7.52719 16.451 7.04395 16.451C6.5607 16.451 6.16895 16.8428 6.16895 17.326C6.16895 17.8093 6.5607 18.201 7.04395 18.201Z" stroke="white" stroke-width="2" stroke-linecap="round" stroke-linejoin="round"/>
</svg>
